<?xml version="1.0" encoding="iso-8859-1"?>
<!-- Generator: Adobe Illustrator 18.0.0, SVG Export Plug-In . SVG Version: 6.00 Build 0)  -->
<!DOCTYPE svg PUBLIC "-//W3C//DTD SVG 1.1//EN" "http://www.w3.org/Graphics/SVG/1.1/DTD/svg11.dtd">
<svg version="1.1" id="Capa_1" xmlns="http://www.w3.org/2000/svg" xmlns:xlink="http://www.w3.org/1999/xlink" x="0px" y="0px"
	 viewBox="0 0 60 60" style="fill:white;" xml:space="preserve">
<g>
	<path d="M50,13V0H10v13h3v1h-1.322C10.753,14,10,14.752,10,15.677v2.646C10,19.248,10.753,20,11.678,20H13v34h-1.322
		C10.753,54,10,54.752,10,55.677v2.646C10,59.248,10.753,60,11.678,60h36.645C49.247,60,50,59.248,50,58.323v-2.646
		C50,54.752,49.247,54,48.322,54H47v-2V22v-2h1.322C49.247,20,50,19.248,50,18.323v-2.646C50,14.752,49.247,14,48.322,14H47v-1H50z
		 M12,11V2h3v2h2V2h2v2h2V2h2v2h2V2h2v2h2V2h2v2h2V2h2v2h2V2h2v2h2V2h2v2h2V2h3v9h-1h-2V9h-2v2h-2V9h-2v2h-2V9h-2v2h-2V9h-2v2h-2V9
		h-2v2h-2V9h-2v2h-2V9h-2v2h-2V9h-2v2h-2H12z M46.699,56H48v2H12v-2h1.301C14.237,56,15,55.237,15,54.3V52h30v2.3
		C45,55.237,45.763,56,46.699,56z M15.032,50V24H45v26H15.032z M48,16v2h-1.301C45.763,18,45,18.763,45,19.7V22H15v-2.3
		c0-0.937-0.763-1.7-1.699-1.7H12v-2h1h34H48z M45,14H15v-1h30V14z"/>
	<path d="M34,27h-8v6h-6v8h6v6h8v-6h6v-8h-6V27z M38,35v4h-6v6h-4v-6h-6v-4h6v-6h4v6H38z"/>
	<rect x="17" y="18" width="6" height="2"/>
	<rect x="26" y="18" width="12" height="2"/>
	<rect x="41" y="18" width="2" height="2"/>
	<rect x="17" y="54" width="6" height="2"/>
	<rect x="26" y="54" width="12" height="2"/>
	<rect x="41" y="54" width="2" height="2"/>
</g>
<g>
</g>
<g>
</g>
<g>
</g>
<g>
</g>
<g>
</g>
<g>
</g>
<g>
</g>
<g>
</g>
<g>
</g>
<g>
</g>
<g>
</g>
<g>
</g>
<g>
</g>
<g>
</g>
<g>
</g>
</svg>
